<svg width="28" height="28" viewBox="0 0 28 28" fill="none" xmlns="http://www.w3.org/2000/svg">
<path fill-rule="evenodd" clip-rule="evenodd" d="M23.0418 14C23.0418 13.7679 22.9496 13.5453 22.7855 13.3812C22.6215 13.2171 22.3989 13.125 22.1668 13.125H5.8335C5.60143 13.125 5.37887 13.2171 5.21478 13.3812C5.05068 13.5453 4.9585 13.7679 4.9585 14C4.9585 14.232 5.05068 14.4546 5.21478 14.6187C5.37887 14.7828 5.60143 14.875 5.8335 14.875H22.1668C22.3989 14.875 22.6215 14.7828 22.7855 14.6187C22.9496 14.4546 23.0418 14.232 23.0418 14ZM23.0418 8.16663C23.0418 7.93456 22.9496 7.712 22.7855 7.54791C22.6215 7.38381 22.3989 7.29163 22.1668 7.29163H5.8335C5.60143 7.29163 5.37887 7.38381 5.21478 7.54791C5.05068 7.712 4.9585 7.93456 4.9585 8.16663C4.9585 8.39869 5.05068 8.62125 5.21478 8.78534C5.37887 8.94944 5.60143 9.04163 5.8335 9.04163H22.1668C22.3989 9.04163 22.6215 8.94944 22.7855 8.78534C22.9496 8.62125 23.0418 8.39869 23.0418 8.16663ZM23.0418 19.8333C23.0418 19.6012 22.9496 19.3787 22.7855 19.2146C22.6215 19.0505 22.3989 18.9583 22.1668 18.9583H5.8335C5.60143 18.9583 5.37887 19.0505 5.21478 19.2146C5.05068 19.3787 4.9585 19.6012 4.9585 19.8333C4.9585 20.0654 5.05068 20.2879 5.21478 20.452C5.37887 20.6161 5.60143 20.7083 5.8335 20.7083H22.1668C22.3989 20.7083 22.6215 20.6161 22.7855 20.452C22.9496 20.2879 23.0418 20.0654 23.0418 19.8333Z" fill="white"/>
</svg>
