<svg width="32" height="32" viewBox="0 0 32 32" fill="none" xmlns="http://www.w3.org/2000/svg">
<path fill-rule="evenodd" clip-rule="evenodd" d="M7.18613 13.5L14.7623 5.92389L15.7051 6.8667L8.12893 14.4428L7.18613 13.5Z" fill="#999999"/>
<path fill-rule="evenodd" clip-rule="evenodd" d="M9.6998 16.0141L17.2759 8.43793L18.2188 9.38074L10.6426 16.9569L9.6998 16.0141Z" fill="#999999"/>
<path fill-rule="evenodd" clip-rule="evenodd" d="M15.0431 21.3567L22.6192 13.7806L23.562 14.7234L15.9859 22.2995L15.0431 21.3567Z" fill="#999999"/>
<path fill-rule="evenodd" clip-rule="evenodd" d="M17.5567 23.8708L25.1329 16.2946L26.0757 17.2374L18.4995 24.8136L17.5567 23.8708Z" fill="#999999"/>
<path fill-rule="evenodd" clip-rule="evenodd" d="M17.5574 23.8709C14.9423 26.486 10.7118 26.4954 8.10829 23.8919C5.50479 21.2884 5.51421 17.0579 8.12933 14.4428L7.18652 13.5C4.04838 16.6381 4.03708 21.7148 7.16127 24.839C10.2855 27.9632 15.3621 27.9518 18.5002 24.8137L17.5574 23.8709Z" fill="#999999"/>
<path fill-rule="evenodd" clip-rule="evenodd" d="M22.619 13.7806L23.5618 14.7234C26.0026 12.2826 26.0113 8.3341 23.5814 5.90417C21.1515 3.47424 17.203 3.48303 14.7622 5.92381L15.705 6.86662C17.6228 4.94887 20.7252 4.94196 22.6344 6.85119C24.5436 8.76042 24.5367 11.8628 22.619 13.7806Z" fill="#999999"/>
<path fill-rule="evenodd" clip-rule="evenodd" d="M9.7002 16.0144C7.95678 17.7578 7.9505 20.5782 9.68617 22.3138C11.4218 24.0495 14.2422 24.0432 15.9856 22.2998L15.0428 21.357C13.8224 22.5774 11.8481 22.5818 10.6332 21.3668C9.41822 20.1518 9.42262 18.1776 10.643 16.9572L9.7002 16.0144Z" fill="#999999"/>
</svg>
