<svg width="21" height="22" viewBox="0 0 21 22" fill="none" xmlns="http://www.w3.org/2000/svg">
<g filter="url(#filter0_d_106_932)">
<path fill-rule="evenodd" clip-rule="evenodd" d="M11.5922 8.41379C10.1603 9.84571 7.83871 9.84571 6.40679 8.41379C4.97486 6.98187 4.97486 4.66027 6.40679 3.22834C7.83871 1.79642 10.1603 1.79642 11.5922 3.22834C13.0242 4.66027 13.0242 6.98187 11.5922 8.41379ZM12.0326 9.79675C10.0724 11.2961 7.25681 11.1494 5.46398 9.3566C3.51136 7.40398 3.51136 4.23816 5.46398 2.28553C7.4166 0.332912 10.5824 0.332912 12.535 2.28553C14.3278 4.07828 14.4746 6.8937 12.9754 8.85391L16.5421 12.4206L15.5993 13.3634L12.0326 9.79675Z" fill="#999999"/>
</g>
<defs>
<filter id="filter0_d_106_932" x="-0.000488281" y="0.821045" width="20.5425" height="20.5425" filterUnits="userSpaceOnUse" color-interpolation-filters="sRGB">
<feFlood flood-opacity="0" result="BackgroundImageFix"/>
<feColorMatrix in="SourceAlpha" type="matrix" values="0 0 0 0 0 0 0 0 0 0 0 0 0 0 0 0 0 0 127 0" result="hardAlpha"/>
<feOffset dy="4"/>
<feGaussianBlur stdDeviation="2"/>
<feComposite in2="hardAlpha" operator="out"/>
<feColorMatrix type="matrix" values="0 0 0 0 0 0 0 0 0 0 0 0 0 0 0 0 0 0 0.25 0"/>
<feBlend mode="normal" in2="BackgroundImageFix" result="effect1_dropShadow_106_932"/>
<feBlend mode="normal" in="SourceGraphic" in2="effect1_dropShadow_106_932" result="shape"/>
</filter>
</defs>
</svg>
