<svg width="20" height="14" viewBox="0 0 20 14" fill="none" xmlns="http://www.w3.org/2000/svg">
<path fill-rule="evenodd" clip-rule="evenodd" d="M19.0418 6.99996C19.0418 6.7679 18.9496 6.54534 18.7855 6.38124C18.6215 6.21715 18.3989 6.12496 18.1668 6.12496H1.8335C1.60143 6.12496 1.37887 6.21715 1.21478 6.38124C1.05068 6.54534 0.958496 6.7679 0.958496 6.99996C0.958496 7.23202 1.05068 7.45458 1.21478 7.61868C1.37887 7.78277 1.60143 7.87496 1.8335 7.87496H18.1668C18.3989 7.87496 18.6215 7.78277 18.7855 7.61868C18.9496 7.45458 19.0418 7.23202 19.0418 6.99996ZM19.0418 1.16663C19.0418 0.934562 18.9496 0.712002 18.7855 0.547907C18.6215 0.383813 18.3989 0.291626 18.1668 0.291626H1.8335C1.60143 0.291626 1.37887 0.383813 1.21478 0.547907C1.05068 0.712002 0.958496 0.934562 0.958496 1.16663C0.958496 1.39869 1.05068 1.62125 1.21478 1.78534C1.37887 1.94944 1.60143 2.04163 1.8335 2.04163H18.1668C18.3989 2.04163 18.6215 1.94944 18.7855 1.78534C18.9496 1.62125 19.0418 1.39869 19.0418 1.16663ZM19.0418 12.8333C19.0418 12.6012 18.9496 12.3787 18.7855 12.2146C18.6215 12.0505 18.3989 11.9583 18.1668 11.9583H1.8335C1.60143 11.9583 1.37887 12.0505 1.21478 12.2146C1.05068 12.3787 0.958496 12.6012 0.958496 12.8333C0.958496 13.0654 1.05068 13.2879 1.21478 13.452C1.37887 13.6161 1.60143 13.7083 1.8335 13.7083H18.1668C18.3989 13.7083 18.6215 13.6161 18.7855 13.452C18.9496 13.2879 19.0418 13.0654 19.0418 12.8333Z" fill="white"/>
</svg>
